<mxfile host="app.diagrams.net" modified="2021-09-21T04:52:32.835Z" agent="5.0 (Windows NT 10.0; Win64; x64) AppleWebKit/537.36 (KHTML, like Gecko) Chrome/93.0.4577.82 Safari/537.36" etag="_joWocNURjDm8WuAKVo6" version="15.2.9" type="github">
  <diagram name="Page-1" id="c37626ed-c26b-45fb-9056-f9ebc6bb27b6">
    <mxGraphModel dx="2893" dy="2457" grid="1" gridSize="10" guides="1" tooltips="1" connect="1" arrows="1" fold="1" page="1" pageScale="1" pageWidth="1100" pageHeight="850" background="none" math="0" shadow="0">
      <root>
        <mxCell id="0" />
        <mxCell id="1" parent="0" />
        <mxCell id="uDAmRmKamBRj4indy7Xd-1" value="" style="sketch=0;points=[[0.5,0,0],[1,0.5,0],[0.5,1,0],[0,0.5,0],[0.145,0.145,0],[0.8555,0.145,0],[0.855,0.8555,0],[0.145,0.855,0]];verticalLabelPosition=bottom;html=1;verticalAlign=top;aspect=fixed;align=center;pointerEvents=1;shape=mxgraph.cisco19.rect;prIcon=ip_telephone_router;fillColor=#FAFAFA;strokeColor=#005073;" vertex="1" parent="1">
          <mxGeometry x="510" y="50" width="240" height="240" as="geometry" />
        </mxCell>
        <mxCell id="uDAmRmKamBRj4indy7Xd-2" style="edgeStyle=orthogonalEdgeStyle;rounded=0;orthogonalLoop=1;jettySize=auto;html=1;exitX=0.5;exitY=0;exitDx=0;exitDy=0;exitPerimeter=0;entryX=0.145;entryY=0.145;entryDx=0;entryDy=0;entryPerimeter=0;" edge="1" parent="1" source="uDAmRmKamBRj4indy7Xd-1" target="uDAmRmKamBRj4indy7Xd-1">
          <mxGeometry relative="1" as="geometry" />
        </mxCell>
        <mxCell id="uDAmRmKamBRj4indy7Xd-16" style="edgeStyle=orthogonalEdgeStyle;rounded=0;orthogonalLoop=1;jettySize=auto;html=1;" edge="1" parent="1" source="uDAmRmKamBRj4indy7Xd-4" target="uDAmRmKamBRj4indy7Xd-1">
          <mxGeometry relative="1" as="geometry" />
        </mxCell>
        <mxCell id="uDAmRmKamBRj4indy7Xd-18" style="edgeStyle=orthogonalEdgeStyle;rounded=0;orthogonalLoop=1;jettySize=auto;html=1;" edge="1" parent="1" source="uDAmRmKamBRj4indy7Xd-5">
          <mxGeometry relative="1" as="geometry">
            <mxPoint x="640" y="330" as="targetPoint" />
          </mxGeometry>
        </mxCell>
        <mxCell id="uDAmRmKamBRj4indy7Xd-5" value="" style="sketch=0;aspect=fixed;pointerEvents=1;shadow=0;dashed=0;html=1;strokeColor=none;labelPosition=center;verticalLabelPosition=bottom;verticalAlign=top;align=center;fillColor=#00188D;shape=mxgraph.mscae.enterprise.domain_controller" vertex="1" parent="1">
          <mxGeometry x="1560" y="370" width="115.2" height="160" as="geometry" />
        </mxCell>
        <mxCell id="uDAmRmKamBRj4indy7Xd-17" style="edgeStyle=orthogonalEdgeStyle;rounded=0;orthogonalLoop=1;jettySize=auto;html=1;entryX=1;entryY=0.25;entryDx=0;entryDy=0;entryPerimeter=0;startArrow=none;" edge="1" parent="1" source="uDAmRmKamBRj4indy7Xd-4" target="uDAmRmKamBRj4indy7Xd-1">
          <mxGeometry relative="1" as="geometry" />
        </mxCell>
        <mxCell id="uDAmRmKamBRj4indy7Xd-6" value="" style="sketch=0;aspect=fixed;pointerEvents=1;shadow=0;dashed=0;html=1;strokeColor=none;labelPosition=center;verticalLabelPosition=bottom;verticalAlign=top;align=center;fillColor=#00188D;shape=mxgraph.mscae.enterprise.domain_controller" vertex="1" parent="1">
          <mxGeometry x="1730" y="160" width="115.2" height="160" as="geometry" />
        </mxCell>
        <mxCell id="uDAmRmKamBRj4indy7Xd-19" style="edgeStyle=orthogonalEdgeStyle;rounded=0;orthogonalLoop=1;jettySize=auto;html=1;" edge="1" parent="1" source="uDAmRmKamBRj4indy7Xd-7">
          <mxGeometry relative="1" as="geometry">
            <mxPoint x="610" y="330" as="targetPoint" />
          </mxGeometry>
        </mxCell>
        <mxCell id="uDAmRmKamBRj4indy7Xd-7" value="" style="sketch=0;aspect=fixed;pointerEvents=1;shadow=0;dashed=0;html=1;strokeColor=none;labelPosition=center;verticalLabelPosition=bottom;verticalAlign=top;align=center;fillColor=#00188D;shape=mxgraph.mscae.enterprise.domain_controller" vertex="1" parent="1">
          <mxGeometry x="1730" y="390" width="115.2" height="160" as="geometry" />
        </mxCell>
        <mxCell id="uDAmRmKamBRj4indy7Xd-8" value="&lt;font style=&quot;font-size: 48px&quot;&gt;domain controller&lt;/font&gt;" style="text;html=1;strokeColor=none;fillColor=none;align=center;verticalAlign=middle;whiteSpace=wrap;rounded=0;" vertex="1" parent="1">
          <mxGeometry x="1675.2" y="30" width="40" height="40" as="geometry" />
        </mxCell>
        <mxCell id="uDAmRmKamBRj4indy7Xd-10" value="&lt;font style=&quot;font-size: 36px&quot;&gt;172.24.23.172&lt;/font&gt;" style="text;html=1;align=center;verticalAlign=middle;resizable=0;points=[];autosize=1;strokeColor=none;fillColor=none;" vertex="1" parent="1">
          <mxGeometry x="1800" y="210" width="250" height="30" as="geometry" />
        </mxCell>
        <mxCell id="uDAmRmKamBRj4indy7Xd-11" value="&lt;font style=&quot;font-size: 36px&quot;&gt;172.24.23.173&lt;/font&gt;" style="text;html=1;align=center;verticalAlign=middle;resizable=0;points=[];autosize=1;strokeColor=none;fillColor=none;" vertex="1" parent="1">
          <mxGeometry x="1800" y="450" width="250" height="30" as="geometry" />
        </mxCell>
        <mxCell id="uDAmRmKamBRj4indy7Xd-13" value="&lt;font style=&quot;font-size: 36px&quot;&gt;172.24.23.40&lt;/font&gt;" style="text;html=1;align=center;verticalAlign=middle;resizable=0;points=[];autosize=1;strokeColor=none;fillColor=none;" vertex="1" parent="1">
          <mxGeometry x="1445.2" y="560" width="230" height="30" as="geometry" />
        </mxCell>
        <mxCell id="uDAmRmKamBRj4indy7Xd-15" value="&lt;font style=&quot;font-size: 36px&quot;&gt;172.24.23.12&lt;/font&gt;" style="text;html=1;align=center;verticalAlign=middle;resizable=0;points=[];autosize=1;strokeColor=none;fillColor=none;" vertex="1" parent="1">
          <mxGeometry x="1460" y="130" width="230" height="30" as="geometry" />
        </mxCell>
        <mxCell id="uDAmRmKamBRj4indy7Xd-21" value="" style="ellipse;whiteSpace=wrap;html=1;fillColor=none;" vertex="1" parent="1">
          <mxGeometry x="1250" y="-80" width="850" height="780" as="geometry" />
        </mxCell>
        <mxCell id="uDAmRmKamBRj4indy7Xd-4" value="" style="sketch=0;aspect=fixed;pointerEvents=1;shadow=0;dashed=0;html=1;strokeColor=none;labelPosition=center;verticalLabelPosition=bottom;verticalAlign=top;align=center;fillColor=#00188D;shape=mxgraph.mscae.enterprise.domain_controller" vertex="1" parent="1">
          <mxGeometry x="1550" y="170" width="115.2" height="160" as="geometry" />
        </mxCell>
        <mxCell id="uDAmRmKamBRj4indy7Xd-22" value="" style="edgeStyle=orthogonalEdgeStyle;rounded=0;orthogonalLoop=1;jettySize=auto;html=1;entryX=1;entryY=0.25;entryDx=0;entryDy=0;entryPerimeter=0;endArrow=none;" edge="1" parent="1" source="uDAmRmKamBRj4indy7Xd-6" target="uDAmRmKamBRj4indy7Xd-4">
          <mxGeometry relative="1" as="geometry">
            <mxPoint x="1730" y="240" as="sourcePoint" />
            <mxPoint x="750" y="110" as="targetPoint" />
          </mxGeometry>
        </mxCell>
        <mxCell id="uDAmRmKamBRj4indy7Xd-23" value="" style="verticalLabelPosition=bottom;sketch=0;aspect=fixed;html=1;verticalAlign=top;strokeColor=none;align=center;outlineConnect=0;shape=mxgraph.citrix.dns_server;fillColor=none;" vertex="1" parent="1">
          <mxGeometry x="1420" y="-690" width="140" height="169.28" as="geometry" />
        </mxCell>
        <mxCell id="uDAmRmKamBRj4indy7Xd-24" value="&lt;font style=&quot;font-size: 48px&quot;&gt;dns server&lt;/font&gt;" style="text;html=1;align=center;verticalAlign=middle;resizable=0;points=[];autosize=1;strokeColor=none;fillColor=none;" vertex="1" parent="1">
          <mxGeometry x="1400" y="-745" width="240" height="30" as="geometry" />
        </mxCell>
        <mxCell id="uDAmRmKamBRj4indy7Xd-25" value="&lt;font style=&quot;font-size: 36px&quot;&gt;172.24.23.172&lt;/font&gt;" style="text;html=1;align=center;verticalAlign=middle;resizable=0;points=[];autosize=1;strokeColor=none;fillColor=none;" vertex="1" parent="1">
          <mxGeometry x="1550" y="-610" width="250" height="30" as="geometry" />
        </mxCell>
        <mxCell id="uDAmRmKamBRj4indy7Xd-26" value="&lt;font style=&quot;font-size: 36px&quot;&gt;172.24.23.173&lt;/font&gt;" style="text;html=1;align=center;verticalAlign=middle;resizable=0;points=[];autosize=1;strokeColor=none;fillColor=none;" vertex="1" parent="1">
          <mxGeometry x="1397.74" y="-190" width="250" height="30" as="geometry" />
        </mxCell>
        <mxCell id="uDAmRmKamBRj4indy7Xd-27" value="&lt;font style=&quot;font-size: 36px&quot;&gt;172.24.23.40&lt;/font&gt;" style="text;html=1;align=center;verticalAlign=middle;resizable=0;points=[];autosize=1;strokeColor=none;fillColor=none;rotation=0;" vertex="1" parent="1">
          <mxGeometry x="1600.48" y="-379" width="230" height="30" as="geometry" />
        </mxCell>
        <mxCell id="uDAmRmKamBRj4indy7Xd-28" value="&lt;font style=&quot;font-size: 36px&quot;&gt;172.24.23.12&lt;/font&gt;" style="text;html=1;align=center;verticalAlign=middle;resizable=0;points=[];autosize=1;strokeColor=none;fillColor=none;" vertex="1" parent="1">
          <mxGeometry x="770" y="-490" width="230" height="30" as="geometry" />
        </mxCell>
        <mxCell id="uDAmRmKamBRj4indy7Xd-29" value="" style="verticalLabelPosition=bottom;sketch=0;aspect=fixed;html=1;verticalAlign=top;strokeColor=none;align=center;outlineConnect=0;shape=mxgraph.citrix.dns_server;fillColor=none;" vertex="1" parent="1">
          <mxGeometry x="1445" y="-458" width="155.48" height="188" as="geometry" />
        </mxCell>
        <mxCell id="uDAmRmKamBRj4indy7Xd-30" value="" style="verticalLabelPosition=bottom;sketch=0;aspect=fixed;html=1;verticalAlign=top;strokeColor=none;align=center;outlineConnect=0;shape=mxgraph.citrix.dns_server;fillColor=none;" vertex="1" parent="1">
          <mxGeometry x="1250" y="-270" width="140.59" height="170" as="geometry" />
        </mxCell>
      </root>
    </mxGraphModel>
  </diagram>
</mxfile>
